<svg width="498" height="512" viewBox="0 0 498 512" fill="none" xmlns="http://www.w3.org/2000/svg">
<path d="M483.581 71.662C467.749 46.852 440.969 32.491 407.694 30.79V7.62999C407.694 3.41599 404.278 -7.08003e-06 400.064 -7.08003e-06H345.134C340.92 -7.08003e-06 337.504 3.41599 337.504 7.62999C337.504 11.844 340.92 15.26 345.134 15.26H392.434V63.678C392.434 166.246 353.614 257.972 295.837 291.928C275.354 303.965 262.654 326.43 262.691 350.557L262.726 372.537H235.282L235.315 350.553C235.351 326.427 222.649 303.965 202.169 291.931C144.389 257.977 105.569 166.25 105.569 63.679V15.259H309.531C313.745 15.259 317.161 11.843 317.161 7.62899C317.161 3.41499 313.745 -0.00100708 309.531 -0.00100708H97.939C93.725 -0.00100708 90.309 3.41499 90.309 7.62899V30.79C57.037 32.493 30.26 46.854 14.43 71.663C-3.68199 100.043 -4.28599 137.397 12.772 174.146C25.733 202.057 51.276 225.433 88.691 243.626C116.587 257.19 141.001 262.784 143.692 263.377L149.915 264.749C163.202 281.91 178.185 295.533 194.439 305.084C210.269 314.386 220.084 331.8 220.057 350.53L220.024 372.537H176.051C155.356 372.537 138.58 389.314 138.58 410.008V419.331H117.726C113.512 419.331 110.096 422.747 110.096 426.961V504.371C110.096 508.585 113.512 512.001 117.726 512.001H166.096C170.31 512.001 173.726 508.585 173.726 504.371C173.726 500.157 170.31 496.741 166.096 496.741H125.355V434.59H146.209H213.213H284.797H351.8H372.654V496.741H201.702C197.488 496.741 194.072 500.157 194.072 504.371C194.072 508.585 197.488 512.001 201.702 512.001H380.284C384.498 512.001 387.914 508.585 387.914 504.371V426.961C387.914 422.747 384.498 419.331 380.284 419.331H359.43V410.008C359.43 389.314 342.653 372.537 321.959 372.537H277.985L277.95 350.532C277.921 331.802 287.738 314.386 303.568 305.082C319.822 295.531 334.803 281.908 348.09 264.748L354.32 263.376C357.017 262.781 381.468 257.166 409.314 243.626C446.731 225.432 472.273 202.056 485.228 174.144C502.284 137.4 501.684 100.049 483.581 71.662ZM90.515 76.671C91.928 123.15 100.926 167.545 116.785 206.148C114.741 205.258 112.726 204.351 110.758 203.422C90.948 194.079 65.07 178.072 54.292 154.862C43.946 132.582 43.483 111.233 53.022 96.288C60.294 84.885 73.472 78.051 90.515 76.671ZM95.363 229.902C71.866 218.478 40.865 198.415 26.612 167.72C11.792 135.792 12.041 103.772 27.294 79.87C40.248 59.568 62.465 47.722 90.31 46.082V61.395C67.905 62.948 50.24 72.268 40.158 88.081C27.76 107.504 27.867 134.187 40.452 161.288C53.155 188.644 82.157 206.804 104.244 217.22C111.072 220.445 118.349 223.436 125.885 226.161C129.337 233.036 132.986 239.593 136.824 245.806C127.21 243.016 111.846 237.916 95.363 229.902ZM321.959 387.795C334.207 387.795 344.171 397.759 344.171 410.007V419.33H284.797H213.214H153.84V410.007C153.84 397.759 163.804 387.795 176.052 387.795H227.643H270.368H321.959ZM407.491 76.67C424.529 78.049 437.71 84.886 444.99 96.287C454.521 111.234 454.054 132.583 443.709 154.86C432.926 178.08 407.052 194.084 387.243 203.421C385.273 204.351 383.26 205.255 381.223 206.142C397.079 167.541 406.077 123.148 407.491 76.67ZM471.388 167.719C457.139 198.414 426.139 218.477 402.641 229.902C386.179 237.906 370.802 243.01 361.181 245.803C365.021 239.587 368.671 233.027 372.124 226.148C379.618 223.443 386.891 220.458 393.75 217.222C415.839 206.81 444.84 188.654 457.547 161.287C470.13 134.191 470.242 107.509 457.852 88.08C447.757 72.267 430.091 62.946 407.693 61.395V46.083C435.54 47.72 457.76 59.567 470.714 79.868C485.962 103.774 486.207 135.794 471.388 167.719Z" fill="#2C426A"/>
</svg>
