<svg width="512" height="512" viewBox="0 0 512 512" fill="none" xmlns="http://www.w3.org/2000/svg">
<g clip-path="url(#clip0)">
<path d="M227.979 380.165H183.051C166.57 380.165 153.209 393.526 153.209 410.007V443.236H358.8V410.007C358.8 393.526 345.439 380.165 328.958 380.165H284.03H227.979Z" fill="#A4347F"/>
<path d="M248.158 380.165H227.98H183.052C166.571 380.165 153.21 393.526 153.21 410.007V443.236H218.316V410.007C218.315 393.526 231.676 380.165 248.158 380.165Z" fill="#B8639C"/>
<path d="M484.149 75.767C468.707 51.566 441.637 38.25 407.945 38.25H407.07H104.94H104.065C70.363 38.25 43.303 51.566 27.861 75.767C11.178 101.911 10.75 136.59 26.691 170.933C55.988 234.024 148.408 255.062 152.334 255.926L161.327 257.91H161.337H350.662H350.672L359.675 255.926C363.592 255.061 456.021 234.024 485.308 170.933C501.249 136.589 500.822 101.909 484.149 75.767ZM457.629 158.074C445.89 183.353 418.454 200.443 397.498 210.321C388.851 214.4 380.621 217.594 373.653 220.016L138.358 220.026H138.348C131.369 217.595 123.14 214.4 114.503 210.321C93.557 200.443 66.111 183.353 54.372 158.074C42.907 133.385 42.622 109.367 53.589 92.185C63.223 77.078 81.157 68.767 104.066 68.767H104.971H407.04H407.945C430.854 68.767 448.778 77.078 458.422 92.185C469.378 109.367 469.093 133.385 457.629 158.074Z" fill="#B8639C"/>
<path d="M277.368 380.165L277.322 350.543C277.289 329.237 288.336 309.299 306.704 298.504C365.194 264.13 407.065 171.979 407.065 63.678V7.63H104.939V63.678C104.939 171.981 146.812 264.135 205.304 298.506C223.671 309.299 234.717 329.237 234.686 350.541L234.642 380.166L277.368 380.165Z" fill="#A4347F"/>
<path d="M245.801 350.542L245.781 380.165H234.642L234.683 350.542C234.714 329.24 223.666 309.302 205.304 298.508C146.81 264.135 104.939 171.98 104.939 63.681V7.63H183.717V63.682C183.717 171.981 203.757 264.136 231.742 298.509C240.531 309.302 245.821 329.241 245.801 350.542Z" fill="#B8639C"/>
<path d="M220.213 426.96H124.726V504.37H387.284V426.96H291.797" fill="#A4347F"/>
<path d="M490.581 71.662C474.749 46.852 447.969 32.491 414.694 30.79V7.62999C414.694 3.41599 411.278 -7.08003e-06 407.064 -7.08003e-06H352.134C347.92 -7.08003e-06 344.504 3.41599 344.504 7.62999C344.504 11.844 347.92 15.26 352.134 15.26H399.434V63.678C399.434 166.246 360.614 257.972 302.837 291.928C282.354 303.965 269.654 326.43 269.691 350.557L269.726 372.537H242.282L242.315 350.553C242.351 326.427 229.649 303.965 209.169 291.931C151.389 257.977 112.569 166.25 112.569 63.679V15.259H316.531C320.745 15.259 324.161 11.843 324.161 7.62899C324.161 3.41499 320.745 -0.00100708 316.531 -0.00100708H104.939C100.725 -0.00100708 97.309 3.41499 97.309 7.62899V30.79C64.037 32.493 37.26 46.854 21.43 71.663C3.31801 100.043 2.71401 137.397 19.772 174.146C32.733 202.057 58.276 225.433 95.691 243.626C123.587 257.19 148.001 262.784 150.692 263.377L156.915 264.749C170.202 281.91 185.185 295.533 201.439 305.084C217.269 314.386 227.084 331.8 227.057 350.53L227.024 372.537H183.051C162.356 372.537 145.58 389.314 145.58 410.008V419.331H124.726C120.512 419.331 117.096 422.747 117.096 426.961V504.371C117.096 508.585 120.512 512.001 124.726 512.001H173.096C177.31 512.001 180.726 508.585 180.726 504.371C180.726 500.157 177.31 496.741 173.096 496.741H132.355V434.59H153.209H220.213H291.797H358.801H379.655V496.741H208.702C204.488 496.741 201.072 500.157 201.072 504.371C201.072 508.585 204.488 512.001 208.702 512.001H387.284C391.498 512.001 394.914 508.585 394.914 504.371V426.961C394.914 422.747 391.498 419.331 387.284 419.331H366.43V410.008C366.43 389.314 349.653 372.537 328.959 372.537H284.985L284.95 350.532C284.921 331.802 294.738 314.386 310.568 305.082C326.822 295.531 341.803 281.909 355.09 264.748L361.32 263.376C364.017 262.781 388.468 257.166 416.314 243.626C453.731 225.432 479.273 202.056 492.228 174.144C509.284 137.4 508.684 100.049 490.581 71.662ZM123.785 206.147C121.741 205.257 119.726 204.35 117.758 203.421C97.948 194.078 72.07 178.071 61.292 154.861C50.946 132.581 50.483 111.232 60.022 96.287C67.293 84.884 80.472 78.05 97.515 76.67C98.928 123.15 107.926 167.545 123.785 206.147ZM102.363 229.902C78.866 218.478 47.865 198.415 33.612 167.72C18.792 135.792 19.041 103.772 34.294 79.87C47.248 59.568 69.465 47.722 97.31 46.082V61.395C74.905 62.948 57.24 72.268 47.158 88.081C34.76 107.504 34.867 134.187 47.452 161.288C60.155 188.644 89.157 206.804 111.244 217.22C118.072 220.445 125.35 223.436 132.885 226.161C136.337 233.036 139.986 239.593 143.824 245.806C134.21 243.016 118.846 237.916 102.363 229.902ZM351.171 410.007V419.33H291.797H220.213H160.839V410.007C160.839 397.759 170.803 387.795 183.051 387.795H234.642H277.367H328.958C341.207 387.795 351.171 397.759 351.171 410.007ZM414.491 76.67C431.529 78.049 444.71 84.886 451.99 96.287C461.521 111.234 461.054 132.583 450.709 154.86C439.926 178.08 414.052 194.084 394.243 203.421C392.273 204.351 390.26 205.255 388.223 206.142C404.079 167.541 413.077 123.148 414.491 76.67ZM478.388 167.719C464.139 198.414 433.139 218.477 409.641 229.902C393.179 237.906 377.802 243.01 368.181 245.803C372.021 239.587 375.671 233.027 379.124 226.148C386.618 223.443 393.891 220.458 400.75 217.222C422.839 206.81 451.84 188.654 464.547 161.287C477.13 134.191 477.242 107.509 464.852 88.08C454.757 72.266 437.091 62.946 414.693 61.395V46.083C442.54 47.72 464.76 59.567 477.714 79.868C492.962 103.774 493.207 135.794 478.388 167.719Z" fill="#2C426A"/>
</g>
<defs>
<clipPath id="clip0">
<rect width="512.001" height="512.001" fill="white"/>
</clipPath>
</defs>
</svg>
