<svg width="512" height="512" viewBox="0 0 512 512" fill="none" xmlns="http://www.w3.org/2000/svg">
<g clip-path="url(#clip0)">
<path d="M115.424 307.686C87.147 307.686 64.224 284.763 64.224 256.486C64.224 228.209 87.147 205.286 115.424 205.286C143.701 205.286 166.624 228.209 166.624 256.486C166.624 284.763 143.701 307.686 115.424 307.686ZM115.424 226.184C98.689 226.184 85.122 239.751 85.122 256.486C85.122 273.221 98.689 286.788 115.424 286.788C132.159 286.788 145.726 273.221 145.726 256.486C145.727 239.75 132.16 226.184 115.424 226.184Z" fill="#2C426A"/>
<path d="M438.298 266.935H202.151C196.38 266.935 191.702 262.257 191.702 256.486C191.702 250.715 196.38 246.037 202.151 246.037H438.298C444.069 246.037 448.747 250.715 448.747 256.486C448.747 262.257 444.069 266.935 438.298 266.935Z" fill="#2C426A"/>
<path d="M115.424 161.4C87.147 161.4 64.224 138.477 64.224 110.2C64.224 81.923 87.147 59 115.424 59C143.701 59 166.624 81.923 166.624 110.2C166.624 138.477 143.701 161.4 115.424 161.4ZM115.424 79.898C98.689 79.898 85.122 93.465 85.122 110.2C85.122 126.935 98.689 140.502 115.424 140.502C132.159 140.502 145.727 126.935 145.727 110.2C145.727 93.465 132.16 79.898 115.424 79.898Z" fill="#2C426A"/>
<path d="M438.298 120.649H202.151C196.38 120.649 191.702 115.971 191.702 110.2C191.702 104.429 196.38 99.751 202.151 99.751H438.298C444.069 99.751 448.747 104.429 448.747 110.2C448.747 115.971 444.069 120.649 438.298 120.649Z" fill="#2C426A"/>
<path d="M115.424 453.971C87.147 453.971 64.224 431.048 64.224 402.771C64.224 374.494 87.147 351.571 115.424 351.571C143.701 351.571 166.624 374.494 166.624 402.771C166.624 431.048 143.701 453.971 115.424 453.971ZM115.424 372.469C98.689 372.469 85.122 386.036 85.122 402.771C85.122 419.506 98.689 433.073 115.424 433.073C132.159 433.073 145.726 419.506 145.726 402.771C145.727 386.036 132.16 372.469 115.424 372.469Z" fill="#2C426A"/>
<path d="M438.298 413.22H202.151C196.38 413.22 191.702 408.542 191.702 402.771C191.702 397 196.38 392.322 202.151 392.322H438.298C444.069 392.322 448.747 397 448.747 402.771C448.747 408.542 444.069 413.22 438.298 413.22Z" fill="#2C426A"/>
</g>
<defs>
<clipPath id="clip0">
<rect width="394.971" height="394.971" fill="white" transform="translate(59 59)"/>
</clipPath>
</defs>
</svg>
