<svg width="512" height="512" viewBox="0 0 512 512" fill="none" xmlns="http://www.w3.org/2000/svg">
<g clip-path="url(#clip0)">
<circle cx="256" cy="256" r="225" fill="white"/>
<path d="M262.975 452.923C369.552 452.923 455.95 364.758 455.95 256C455.95 147.242 369.552 59.0769 262.975 59.0769C207.323 59.0769 157.174 83.1164 121.955 121.574L115.346 126.485C91.5954 140.118 58.9381 120.426 73.692 86.3432C119.653 33.3841 186.787 0 261.562 0C400.112 0 512.429 114.615 512.429 256C512.429 397.385 400.112 512 261.562 512C187.237 512 120.462 479.017 74.5245 426.611C59.609 390.426 99.6884 366.112 121.955 390.426C157.174 428.884 207.323 452.923 262.975 452.923Z" fill="black"/>
<path d="M40.2584 228.513H252.045L224.241 199.245C205.216 172.172 238.143 138.514 267.411 164.123L347.166 244.61C354 252 353 261.5 347.166 268.025L267.411 349.243C242.533 370.462 204.485 346.316 224.241 312.658L252.777 284.122H40.2584C9.85335 277.537 11.3167 233.635 40.2584 228.513Z" fill="black"/>
</g>
<defs>
<clipPath id="clip0">
<rect width="512" height="512" fill="white"/>
</clipPath>
</defs>
</svg>
