<svg width="512" height="512" viewBox="0 0 512 512" fill="none" xmlns="http://www.w3.org/2000/svg">
<circle cx="256" cy="256" r="256" fill="#FFFEFE"/>
<path d="M256 148.5C276.872 148.5 293.793 131.58 293.793 110.707C293.793 89.8346 276.872 72.9141 256 72.9141C235.128 72.9141 218.207 89.8346 218.207 110.707C218.207 131.58 235.128 148.5 256 148.5Z" fill="#A4347F"/>
<path d="M361.914 360.63C379.99 371.066 403.104 364.873 413.54 346.796C423.976 328.72 417.783 305.607 399.707 295.17C381.631 284.734 358.517 290.927 348.08 309.004C337.644 327.08 343.838 350.193 361.914 360.63Z" fill="#2C426A"/>
<path d="M150.155 362.192C168.232 351.756 174.425 328.642 163.989 310.566C153.552 292.49 130.439 286.296 112.362 296.732C94.2864 307.169 88.0931 330.282 98.5293 348.359C108.966 366.435 132.079 372.628 150.155 362.192Z" fill="#57347F"/>
<path d="M180.978 350.33L279.589 372.254L216.498 332.864L208.369 204.668L147.444 236.092L140.532 275.712C181.406 287.246 195.087 311.352 180.978 350.33Z" fill="#57347F"/>
<path d="M375.207 280.175L343.688 184.199L342.048 258.559L235.987 331.025L294.121 367.353L331.714 353.06C320.753 312.028 334.49 287.954 375.207 280.175Z" fill="#2C426A"/>
<path d="M213.974 146.232L147.452 222.256L212.27 185.777L328.665 240.114L330.302 171.582L298.849 146.518C269.129 176.856 241.414 177.303 213.974 146.232Z" fill="#A4347F"/>
</svg>
