<svg width="512" height="512" viewBox="0 0 512 512" fill="none" xmlns="http://www.w3.org/2000/svg">
<path fill-rule="evenodd" clip-rule="evenodd" d="M512 256C512 397.385 397.385 512 256 512C114.615 512 0 397.385 0 256C0 114.615 114.615 0 256 0C397.385 0 512 114.615 512 256ZM256 193C294.66 193 326 161.66 326 123C326 84.3401 294.66 53 256 53C217.34 53 186 84.3401 186 123C186 161.66 217.34 193 256 193ZM239.708 438.12C247.683 449.319 264.317 449.319 272.292 438.12L393.713 267.601C403.141 254.36 393.675 236 377.421 236H134.579C118.325 236 108.859 254.361 118.287 267.601L239.708 438.12Z" fill="black"/>
</svg>
