<svg width="395" height="395" viewBox="0 0 395 395" fill="none" xmlns="http://www.w3.org/2000/svg">
<g clip-path="url(#clip0)">
<path d="M56.424 384.522C78.9302 384.522 97.175 366.277 97.175 343.771C97.175 321.265 78.9302 303.02 56.424 303.02C33.9178 303.02 15.673 321.265 15.673 343.771C15.673 366.277 33.9178 384.522 56.424 384.522Z" fill="black"/>
<path d="M56.424 238.237C78.9302 238.237 97.175 219.992 97.175 197.486C97.175 174.98 78.9302 156.735 56.424 156.735C33.9178 156.735 15.673 174.98 15.673 197.486C15.673 219.992 33.9178 238.237 56.424 238.237Z" fill="black"/>
<path d="M56.424 91.951C78.9302 91.951 97.175 73.7062 97.175 51.2C97.175 28.6938 78.9302 10.449 56.424 10.449C33.9178 10.449 15.673 28.6938 15.673 51.2C15.673 73.7062 33.9178 91.951 56.424 91.951Z" fill="black"/>
<path d="M56.424 248.686C28.147 248.686 5.224 225.763 5.224 197.486C5.224 169.209 28.147 146.286 56.424 146.286C84.701 146.286 107.624 169.209 107.624 197.486C107.624 225.763 84.701 248.686 56.424 248.686ZM56.424 167.184C39.689 167.184 26.122 180.751 26.122 197.486C26.122 214.221 39.689 227.788 56.424 227.788C73.159 227.788 86.726 214.221 86.726 197.486C86.727 180.75 73.16 167.184 56.424 167.184Z" fill="black"/>
<path d="M56.424 102.4C28.147 102.4 5.224 79.477 5.224 51.2C5.224 22.923 28.147 0 56.424 0C84.701 0 107.624 22.923 107.624 51.2C107.624 79.477 84.701 102.4 56.424 102.4ZM56.424 20.898C39.689 20.898 26.122 34.465 26.122 51.2C26.122 67.935 39.689 81.502 56.424 81.502C73.159 81.502 86.727 67.935 86.727 51.2C86.727 34.465 73.16 20.898 56.424 20.898Z" fill="black"/>
<path d="M56.424 394.971C28.147 394.971 5.224 372.048 5.224 343.771C5.224 315.494 28.147 292.571 56.424 292.571C84.701 292.571 107.624 315.494 107.624 343.771C107.624 372.048 84.701 394.971 56.424 394.971ZM56.424 313.469C39.689 313.469 26.122 327.036 26.122 343.771C26.122 360.506 39.689 374.073 56.424 374.073C73.159 374.073 86.726 360.506 86.726 343.771C86.727 327.036 73.16 313.469 56.424 313.469Z" fill="black"/>
<path d="M139 199L374 197" stroke="black" stroke-width="35" stroke-miterlimit="1" stroke-linecap="round" stroke-linejoin="bevel"/>
<path d="M139 53L374 51" stroke="black" stroke-width="35" stroke-miterlimit="1" stroke-linecap="round" stroke-linejoin="bevel"/>
<path d="M139 344L374 342" stroke="black" stroke-width="35" stroke-miterlimit="1" stroke-linecap="round" stroke-linejoin="bevel"/>
</g>
<defs>
<clipPath id="clip0">
<rect width="394.971" height="394.971" fill="white"/>
</clipPath>
</defs>
</svg>
