<svg width="512" height="512" viewBox="0 0 512 512" fill="none" xmlns="http://www.w3.org/2000/svg">
<path fill-rule="evenodd" clip-rule="evenodd" d="M91 41H421C448.614 41 471 63.3858 471 91V421C471 448.614 448.614 471 421 471H91C63.3858 471 41 448.614 41 421V91C41 63.3858 63.3858 41 91 41ZM373.372 228.577H236.255C221.11 228.577 208.832 240.854 208.832 256C208.832 271.146 221.11 283.423 236.255 283.423H373.372C388.518 283.423 400.796 271.146 400.796 256C400.796 240.854 388.518 228.577 373.372 228.577ZM373.372 121.077H236.255C221.11 121.077 208.832 133.354 208.832 148.5C208.832 163.646 221.11 175.923 236.255 175.923H373.372C388.518 175.923 400.796 163.646 400.796 148.5C400.796 133.354 388.518 121.077 373.372 121.077ZM373.372 336.077H236.255C221.11 336.077 208.832 348.354 208.832 363.5C208.832 378.646 221.11 390.923 236.255 390.923H373.372C388.518 390.923 400.796 378.646 400.796 363.5C400.796 348.354 388.518 336.077 373.372 336.077ZM143.906 175.511C158.938 175.511 171.123 163.325 171.123 148.294C171.123 133.262 158.938 121.077 143.906 121.077C128.874 121.077 116.689 133.262 116.689 148.294C116.689 163.325 128.874 175.511 143.906 175.511ZM143.906 283.011C158.938 283.011 171.123 270.825 171.123 255.794C171.123 240.762 158.938 228.577 143.906 228.577C128.874 228.577 116.689 240.762 116.689 255.794C116.689 270.825 128.874 283.011 143.906 283.011ZM143.906 390.511C158.938 390.511 171.123 378.325 171.123 363.294C171.123 348.262 158.938 336.077 143.906 336.077C128.874 336.077 116.689 348.262 116.689 363.294C116.689 378.325 128.874 390.511 143.906 390.511Z" fill="black"/>
</svg>
