<svg width="512" height="512" viewBox="0 0 512 512" fill="none" xmlns="http://www.w3.org/2000/svg">
<!--<path d="M256 477.867C378.534 477.867 477.867 378.534 477.867 256C477.867 133.466 378.534 34.1333 256 34.1333C133.466 34.1333 34.1333 133.466 34.1333 256C34.1333 378.534 133.466 477.867 256 477.867Z" fill="#FFCCF1"/>-->
<path d="M255.995 34.13C212.114 34.13 169.219 47.1422 132.733 71.521C96.248 95.8998 67.811 130.55 51.0186 171.091C34.2261 211.631 29.8325 256.241 38.3932 299.279C46.9539 342.316 68.0845 381.849 99.1129 412.877C130.141 443.906 169.674 465.036 212.711 473.597C255.749 482.158 300.359 477.764 340.899 460.971C381.44 444.179 416.09 415.742 440.469 379.257C464.848 342.771 477.86 299.876 477.86 255.995C477.86 197.153 454.485 140.72 412.877 99.1127C371.27 57.505 314.837 34.13 255.995 34.13V34.13ZM255.995 456.958C206.492 456.657 158.838 438.117 122.148 404.884C85.4577 371.651 62.3075 326.057 57.1256 276.826C51.9437 227.594 65.0939 178.18 94.0606 138.036C123.027 97.8922 165.777 69.8364 214.133 59.2358L193.698 283.319L260.199 261.833L248.522 456.14L344.683 187.567L287.231 201.404L306.323 61.2793C353.895 73.361 395.405 102.425 423.031 142.994C450.656 183.563 462.49 232.835 456.301 281.525C450.113 330.215 426.33 374.961 389.433 407.329C352.537 439.697 305.076 457.453 255.995 457.25V456.958Z" fill="black"/>
</svg>
