<svg width="512" height="512" viewBox="0 0 512 512" fill="none" xmlns="http://www.w3.org/2000/svg">
<path d="M318.903 456.763C321.071 437.814 332.549 420.993 349.792 411.459C367.036 401.925 388.004 400.834 406.235 408.507L443.307 424.118C469.999 396.885 490.411 363.974 502 327.313L469.138 304.256C453.075 292.98 443.585 275.068 443.585 256C443.585 236.932 453.075 219.02 469.138 207.744L502 184.687C490.411 148.026 469.999 115.115 443.307 87.8823L406.235 103.493C388.004 111.166 367.036 110.075 349.792 100.541C332.549 91.0071 321.071 74.1861 318.903 55.2374L314.485 16.6486C295.671 12.4467 276.148 10 256 10C235.852 10 216.329 12.4467 197.515 16.6354L193.097 55.2241C190.929 74.1728 179.452 90.9938 162.208 100.528C144.964 110.062 123.996 111.153 105.765 103.48L68.6932 87.869C42.0006 115.102 21.5886 148.013 10 184.673L42.8621 207.731C58.9249 219.02 68.4153 236.932 68.4153 256C68.4153 275.068 58.9249 292.98 42.8621 304.256L10 327.313C21.5886 363.974 41.9867 396.885 68.6932 424.118L105.765 408.507C123.996 400.834 144.964 401.925 162.208 411.459C179.452 420.993 190.929 437.814 193.097 456.763L197.515 495.351C216.329 499.553 235.852 502 256 502C276.148 502 295.671 499.553 314.485 495.365L318.903 456.763Z" stroke="#0b1354" stroke-width="15" stroke-miterlimit="10" stroke-linejoin="round"/>
<path d="M256 329.966C305.881 329.966 346.318 291.269 346.318 243.534C346.318 195.798 305.881 157.101 256 157.101C206.118 157.101 165.681 195.798 165.681 243.534C165.681 291.269 206.118 329.966 256 329.966Z" stroke="#0b1354" stroke-width="15" stroke-miterlimit="10"/>
</svg>
