<svg width="512" height="512" viewBox="0 0 512 512" fill="none" xmlns="http://www.w3.org/2000/svg">
<g clip-path="url(#clip0)">
<path d="M316.986 450.642L334.372 452.632L334.372 452.631L316.986 450.642ZM401.654 403.857L408.446 387.729L408.443 387.727L401.654 403.857ZM437.596 418.992L430.805 435.121C437.421 437.907 445.069 436.369 450.094 431.242L437.596 418.992ZM494.5 325.139L511.186 330.414C513.488 323.133 510.802 315.2 504.551 310.814L494.5 325.139ZM462.64 302.785L452.585 317.108L452.588 317.11L462.64 302.785ZM462.64 209.215L452.588 194.89L452.585 194.892L462.64 209.215ZM494.5 186.861L504.551 201.186C510.802 196.8 513.488 188.867 511.186 181.586L494.5 186.861ZM437.596 93.0078L450.094 80.758C445.069 75.6309 437.421 74.0932 430.805 76.8795L437.596 93.0078ZM401.654 108.143L408.443 124.273L408.446 124.271L401.654 108.143ZM316.986 61.3582L334.372 59.3693L334.372 59.3674L316.986 61.3582ZM312.702 23.9459L330.088 21.9551C329.24 14.5481 323.792 8.49178 316.516 6.86673L312.702 23.9459ZM199.298 23.9331L195.495 6.85127C188.214 8.47236 182.761 14.5309 181.912 21.9422L199.298 23.9331ZM195.014 61.3453L177.628 59.3545L177.628 59.3564L195.014 61.3453ZM110.346 108.13L103.554 124.258L103.557 124.26L110.346 108.13ZM74.4038 92.9949L81.1954 76.8666C74.5787 74.0803 66.9315 75.618 61.906 80.7451L74.4038 92.9949ZM17.5 186.848L0.81381 181.573C-1.48779 188.854 1.19755 196.787 7.44859 201.173L17.5 186.848ZM49.3602 209.202L59.4229 194.885L59.4116 194.877L49.3602 209.202ZM49.3602 302.785L59.4116 317.11L59.415 317.108L49.3602 302.785ZM17.5 325.139L7.44859 310.814C1.19755 315.2 -1.48779 323.133 0.81381 330.414L17.5 325.139ZM74.4038 418.992L61.9092 431.245C66.9349 436.37 74.5802 437.906 81.1954 435.121L74.4038 418.992ZM110.346 403.857L103.557 387.727L103.554 387.729L110.346 403.857ZM195.014 450.642L177.628 452.631L177.628 452.633L195.014 450.642ZM199.298 488.054L181.912 490.045C182.76 497.452 188.208 503.508 195.484 505.133L199.298 488.054ZM312.702 488.067L316.505 505.149C323.786 503.528 329.24 497.469 330.088 490.057L312.702 488.067ZM326.065 243.914C326.065 279.811 295.429 310.211 256 310.211V345.211C313.292 345.211 361.065 300.576 361.065 243.914H326.065ZM256 310.211C216.571 310.211 185.935 279.811 185.935 243.914H150.935C150.935 300.576 198.707 345.211 256 345.211V310.211ZM185.935 243.914C185.935 208.016 216.571 177.617 256 177.617V142.617C198.707 142.617 150.935 187.252 150.935 243.914H185.935ZM256 177.617C295.429 177.617 326.065 208.016 326.065 243.914H361.065C361.065 187.252 313.292 142.617 256 142.617V177.617ZM334.372 452.631C335.805 440.108 343.434 428.651 355.401 422.034L338.465 391.404C316.996 403.275 302.37 424.434 299.599 448.653L334.372 452.631ZM355.401 422.034C367.4 415.4 382.105 414.616 394.866 419.987L408.443 387.727C385.855 378.221 359.902 379.552 338.465 391.404L355.401 422.034ZM394.863 419.986L430.805 435.121L444.388 402.864L408.446 387.729L394.863 419.986ZM450.094 431.242C477.781 402.995 499.073 368.733 511.186 330.414L477.814 319.865C467.456 352.631 449.169 382.185 425.099 406.742L450.094 431.242ZM504.551 310.814L472.691 288.459L452.588 317.11L484.449 339.465L504.551 310.814ZM472.695 288.462C461.622 280.688 455.366 268.584 455.366 256H420.366C420.366 280.39 432.512 303.016 452.585 317.108L472.695 288.462ZM455.366 256C455.366 243.416 461.622 231.312 472.695 223.538L452.585 194.892C432.512 208.984 420.366 231.61 420.366 256H455.366ZM472.691 223.541L504.551 201.186L484.449 172.535L452.588 194.89L472.691 223.541ZM511.186 181.586C499.073 143.267 477.781 109.005 450.094 80.758L425.099 105.258C449.169 129.816 467.456 159.369 477.814 192.135L511.186 181.586ZM430.805 76.8795L394.863 92.0145L408.446 124.271L444.388 109.136L430.805 76.8795ZM394.866 92.0132C382.105 97.3839 367.4 96.6004 355.401 89.9659L338.465 120.596C359.902 132.448 385.855 133.779 408.443 124.273L394.866 92.0132ZM355.401 89.9659C343.434 83.3495 335.805 71.8924 334.372 59.3693L299.599 63.3472C302.37 87.5659 316.996 108.725 338.465 120.596L355.401 89.9659ZM334.372 59.3674L330.088 21.9551L295.315 25.9368L299.599 63.3491L334.372 59.3674ZM316.516 6.86673C297.17 2.54586 276.958 0 256 0V35C274.109 35 291.753 37.1984 308.887 41.0252L316.516 6.86673ZM256 0C235.042 0 214.834 2.54581 195.495 6.85127L203.101 41.0148C220.243 37.1984 237.891 35 256 35V0ZM181.912 21.9422L177.628 59.3545L212.401 63.3362L216.685 25.9239L181.912 21.9422ZM177.628 59.3564C176.195 71.8795 168.566 83.3366 156.6 89.953L173.535 120.583C195.004 108.712 209.63 87.553 212.401 63.3343L177.628 59.3564ZM156.6 89.953C144.6 96.5875 129.895 97.371 117.134 92.0003L103.557 124.26C126.145 133.766 152.098 132.435 173.535 120.583L156.6 89.953ZM117.137 92.0016L81.1954 76.8666L67.6122 109.123L103.554 124.258L117.137 92.0016ZM61.906 80.7451C34.2191 108.992 12.9267 143.254 0.81381 181.573L34.1862 192.122C44.5439 159.356 62.8308 129.803 86.9015 105.245L61.906 80.7451ZM7.44859 201.173L39.3088 223.528L59.4116 194.877L27.5514 172.522L7.44859 201.173ZM39.2974 223.52C50.3792 231.309 56.6343 243.418 56.6343 256H91.6343C91.6343 231.608 79.4874 208.987 59.4229 194.885L39.2974 223.52ZM56.6343 256C56.6343 268.584 50.3783 280.688 39.3054 288.462L59.415 317.108C79.4882 303.016 91.6343 280.39 91.6343 256H56.6343ZM39.3088 288.459L7.44859 310.814L27.5514 339.465L59.4116 317.11L39.3088 288.459ZM0.81381 330.414C12.9257 368.73 34.2037 402.994 61.9092 431.245L86.8983 406.739C62.8192 382.186 44.5449 352.634 34.1862 319.865L0.81381 330.414ZM81.1954 435.121L117.137 419.986L103.554 387.729L67.6122 402.864L81.1954 435.121ZM117.134 419.987C129.895 414.616 144.6 415.4 156.6 422.034L173.535 391.404C152.098 379.552 126.145 378.221 103.557 387.727L117.134 419.987ZM156.6 422.034C168.566 428.651 176.195 440.108 177.628 452.631L212.401 448.653C209.63 424.434 195.004 403.275 173.535 391.404L156.6 422.034ZM177.628 452.633L181.912 490.045L216.685 486.063L212.401 448.651L177.628 452.633ZM195.484 505.133C214.83 509.454 235.042 512 256 512V477C237.891 477 220.247 474.802 203.113 470.975L195.484 505.133ZM256 512C276.958 512 297.166 509.454 316.505 505.149L308.899 470.985C291.757 474.802 274.109 477 256 477V512ZM330.088 490.057L334.372 452.632L299.599 448.652L295.315 486.077L330.088 490.057Z" fill="black"/>
</g>
<defs>
<clipPath id="clip0">
<rect width="512" height="512" fill="white"/>
</clipPath>
</defs>
</svg>
