<svg width="512" height="512" viewBox="0 0 512 512" fill="none" xmlns="http://www.w3.org/2000/svg">
<path fill-rule="evenodd" clip-rule="evenodd" d="M318.903 456.763C321.071 437.814 332.549 420.993 349.792 411.459C367.036 401.925 388.004 400.834 406.235 408.507L443.307 424.118C469.999 396.885 490.411 363.974 502 327.313L469.138 304.256C453.075 292.98 443.585 275.068 443.585 256C443.585 236.932 453.075 219.02 469.138 207.744L502 184.687C490.411 148.026 469.999 115.115 443.307 87.8823L406.235 103.493C388.004 111.166 367.036 110.075 349.792 100.541C332.549 91.0071 321.071 74.1861 318.903 55.2374L314.485 16.6486C295.671 12.4467 276.148 10 256 10C235.852 10 216.329 12.4467 197.515 16.6354L193.097 55.2241C190.929 74.1728 179.452 90.9938 162.208 100.528C144.964 110.062 123.996 111.153 105.765 103.48L68.6932 87.869C42.0006 115.102 21.5886 148.013 10 184.673L42.8621 207.731C58.9249 219.02 68.4153 236.932 68.4153 256C68.4153 275.068 58.9249 292.98 42.8621 304.256L10 327.313C21.5886 363.974 41.9867 396.885 68.6932 424.118L105.765 408.507C123.996 400.834 144.964 401.925 162.208 411.459C179.452 420.993 190.929 437.814 193.097 456.763L197.515 495.351C216.329 499.553 235.852 502 256 502C276.148 502 295.671 499.553 314.485 495.365L318.903 456.763ZM256 329.966C305.881 329.966 346.318 291.269 346.318 243.534C346.318 195.798 305.881 157.101 256 157.101C206.118 157.101 165.681 195.798 165.681 243.534C165.681 291.269 206.118 329.966 256 329.966Z" fill="black"/>
<path d="M318.903 456.763L326.355 457.616L326.355 457.615L318.903 456.763ZM406.235 408.507L409.145 401.595L409.144 401.594L406.235 408.507ZM443.307 424.118L440.396 431.03C443.232 432.224 446.509 431.565 448.663 429.368L443.307 424.118ZM502 327.313L509.151 329.574C510.138 326.453 508.987 323.054 506.308 321.174L502 327.313ZM469.138 304.256L464.829 310.394L464.83 310.395L469.138 304.256ZM469.138 207.744L464.83 201.605L464.829 201.606L469.138 207.744ZM502 184.687L506.308 190.826C508.987 188.946 510.138 185.547 509.151 182.426L502 184.687ZM443.307 87.8823L448.663 82.6324C446.509 80.435 443.232 79.776 440.396 80.9701L443.307 87.8823ZM406.235 103.493L409.144 110.406L409.145 110.405L406.235 103.493ZM318.903 55.2374L326.355 54.385L326.355 54.3842L318.903 55.2374ZM314.485 16.6486L321.936 15.7954C321.573 12.621 319.238 10.0254 316.12 9.32898L314.485 16.6486ZM197.515 16.6354L195.885 9.31459C192.765 10.0093 190.428 12.6059 190.064 15.7821L197.515 16.6354ZM193.097 55.2241L185.645 54.3709L185.645 54.3717L193.097 55.2241ZM105.765 103.48L102.855 110.392L102.856 110.393L105.765 103.48ZM68.6932 87.869L71.6039 80.9568C68.7682 79.7627 65.4908 80.4217 63.337 82.6191L68.6932 87.869ZM10 184.673L2.84878 182.413C1.86237 185.533 3.01323 188.933 5.69225 190.813L10 184.673ZM42.8621 207.731L47.1747 201.595L47.1698 201.591L42.8621 207.731ZM42.8621 304.256L47.1698 310.395L47.1713 310.394L42.8621 304.256ZM10 327.313L5.69225 321.174C3.01323 323.054 1.86237 326.453 2.84878 329.574L10 327.313ZM68.6932 424.118L63.3384 429.369C65.4922 431.565 68.7688 432.224 71.6039 431.03L68.6932 424.118ZM105.765 408.507L102.856 401.594L102.855 401.595L105.765 408.507ZM193.097 456.763L185.645 457.615L185.645 457.616L193.097 456.763ZM197.515 495.351L190.064 496.205C190.427 499.379 192.762 501.975 195.881 502.671L197.515 495.351ZM314.485 495.365L316.115 502.685C319.235 501.991 321.573 499.394 321.936 496.218L314.485 495.365ZM338.818 243.534C338.818 286.82 302.053 322.466 256 322.466V337.466C309.709 337.466 353.818 295.719 353.818 243.534H338.818ZM256 322.466C209.946 322.466 173.181 286.82 173.181 243.534H158.181C158.181 295.719 202.29 337.466 256 337.466V322.466ZM173.181 243.534C173.181 200.248 209.946 164.601 256 164.601V149.601C202.29 149.601 158.181 191.349 158.181 243.534H173.181ZM256 164.601C302.053 164.601 338.818 200.248 338.818 243.534H353.818C353.818 191.349 309.709 149.601 256 149.601V164.601ZM326.355 457.615C328.236 441.173 338.214 426.431 353.421 418.022L346.163 404.895C326.883 415.555 313.906 434.455 311.452 455.91L326.355 457.615ZM353.421 418.022C368.643 409.606 387.201 408.633 403.325 415.419L409.144 401.594C388.808 393.035 365.43 394.243 346.163 404.895L353.421 418.022ZM403.324 415.419L440.396 431.03L446.218 417.206L409.145 401.595L403.324 415.419ZM448.663 429.368C476.131 401.344 497.187 367.424 509.151 329.574L494.849 325.053C483.636 360.524 463.868 392.426 437.951 418.868L448.663 429.368ZM506.308 321.174L473.446 298.116L464.83 310.395L497.692 333.453L506.308 321.174ZM473.447 298.117C459.313 288.195 451.085 272.538 451.085 256H436.085C436.085 277.598 446.837 297.764 464.829 310.394L473.447 298.117ZM451.085 256C451.085 239.462 459.313 223.805 473.447 213.883L464.829 201.606C446.837 214.236 436.085 234.402 436.085 256H451.085ZM473.446 213.884L506.308 190.826L497.692 178.547L464.83 201.605L473.446 213.884ZM509.151 182.426C497.187 144.576 476.131 110.656 448.663 82.6324L437.951 93.1322C463.868 119.574 483.636 151.476 494.849 186.947L509.151 182.426ZM440.396 80.9701L403.324 96.5811L409.145 110.405L446.218 94.7944L440.396 80.9701ZM403.325 96.5806C387.201 103.367 368.643 102.394 353.421 93.9777L346.163 107.105C365.43 117.757 388.808 118.965 409.144 110.406L403.325 96.5806ZM353.421 93.9777C338.214 85.5695 328.236 70.8275 326.355 54.385L311.452 56.0898C313.906 77.5447 326.883 96.4448 346.163 107.105L353.421 93.9777ZM326.355 54.3842L321.936 15.7954L307.033 17.5019L311.452 56.0906L326.355 54.3842ZM316.12 9.32898C296.831 5.02117 276.759 2.5 256 2.5V17.5C275.537 17.5 294.51 19.8722 312.85 23.9683L316.12 9.32898ZM256 2.5C235.242 2.5 215.17 5.02114 195.885 9.31459L199.145 23.9561C217.488 19.8723 236.462 17.5 256 17.5V2.5ZM190.064 15.7821L185.645 54.3709L200.548 56.0773L204.967 17.4886L190.064 15.7821ZM185.645 54.3717C183.764 70.8142 173.786 85.5562 158.579 93.9644L165.837 107.092C185.117 96.4315 198.094 77.5314 200.548 56.0765L185.645 54.3717ZM158.579 93.9644C143.357 102.38 124.8 103.354 108.675 96.5673L102.856 110.393C123.192 118.952 146.57 117.744 165.837 107.092L158.579 93.9644ZM108.676 96.5678L71.6039 80.9568L65.7825 94.7811L102.855 110.392L108.676 96.5678ZM63.337 82.6191C35.8695 110.643 14.8135 144.562 2.84878 182.413L17.1512 186.934C28.3637 151.463 48.1316 119.561 74.0494 93.1189L63.337 82.6191ZM5.69225 190.813L38.5543 213.87L47.1698 201.591L14.3077 178.534L5.69225 190.813ZM38.5495 213.867C52.6874 223.803 60.9153 239.462 60.9153 256H75.9153C75.9153 234.401 65.1624 214.237 47.1747 201.595L38.5495 213.867ZM60.9153 256C60.9153 272.538 52.6871 288.195 38.5529 298.117L47.1713 310.394C65.1627 297.764 75.9153 277.598 75.9153 256H60.9153ZM38.5543 298.116L5.69225 321.174L14.3077 333.453L47.1698 310.395L38.5543 298.116ZM2.84878 329.574C14.813 367.423 35.8548 401.344 63.3384 429.369L74.048 418.866C48.1186 392.426 28.3641 360.525 17.1512 325.053L2.84878 329.574ZM71.6039 431.03L108.676 415.419L102.855 401.595L65.7825 417.206L71.6039 431.03ZM108.675 415.419C124.8 408.633 143.357 409.606 158.579 418.022L165.837 404.895C146.57 394.243 123.192 393.035 102.856 401.594L108.675 415.419ZM158.579 418.022C173.786 426.431 183.764 441.173 185.645 457.615L200.548 455.91C198.094 434.455 185.117 415.555 165.837 404.895L158.579 418.022ZM185.645 457.616L190.064 496.205L204.967 494.498L200.548 455.909L185.645 457.616ZM195.881 502.671C215.169 506.979 235.241 509.5 256 509.5V494.5C236.463 494.5 217.49 492.128 199.15 488.032L195.881 502.671ZM256 509.5C276.758 509.5 296.83 506.979 316.115 502.685L312.855 488.044C294.512 492.128 275.538 494.5 256 494.5V509.5ZM321.936 496.218L326.355 457.616L311.452 455.91L307.033 494.512L321.936 496.218Z" fill="black"/>
</svg>
