<svg width="512" height="512" viewBox="0 0 512 512" fill="none" xmlns="http://www.w3.org/2000/svg">
<g clip-path="url(#clip0)">
<path d="M483.593 376.87C485.956 370.212 487.255 363.055 487.255 355.597C487.255 320.41 458.636 291.784 423.458 291.784C398.568 291.784 376.976 306.124 366.467 326.969H321.155C321.186 326.141 321.218 325.313 321.218 324.478C321.218 291.947 297.267 264.907 266.071 260.052V220.215H309.841C328.976 220.215 344.544 204.631 344.544 185.475V154.981C344.544 130.119 334.28 106.871 316.137 90.084C318.5 83.426 319.799 76.269 319.799 68.812C319.799 33.625 291.18 4.99899 256.001 4.99899C220.823 4.99899 192.204 33.625 192.204 68.812C192.204 76.269 193.502 83.426 195.866 90.083C177.722 106.871 167.458 130.119 167.458 154.981V185.475C167.458 204.631 183.026 220.215 202.162 220.215H245.931V260.052C214.735 264.908 190.785 291.948 190.785 324.478C190.785 325.313 190.817 326.141 190.848 326.969H145.535C135.026 306.124 113.435 291.784 88.545 291.784C53.382 291.784 24.776 320.41 24.776 355.597C24.776 363.047 26.072 370.198 28.43 376.85C10.271 393.639 0 416.895 0 441.767V472.262C0 491.418 15.568 507.002 34.703 507.002H43.596C49.158 507.002 53.667 502.493 53.667 496.931C53.667 491.369 49.158 486.86 43.596 486.86H34.703C26.674 486.86 20.142 480.312 20.142 472.262V441.767C20.142 424.254 26.756 407.772 38.575 395.156C50.266 409.899 68.313 419.382 88.544 419.382C108.778 419.382 126.829 409.903 138.525 395.166C150.354 407.79 156.974 424.268 156.974 441.766V472.261C156.974 480.31 150.429 486.859 142.383 486.859H99.5C93.938 486.859 88.545 491.369 88.545 496.931C88.545 502.493 93.938 507.001 99.5 507.001H142.383C161.535 507.001 177.116 491.417 177.116 472.261V441.766C177.116 416.914 166.842 393.665 148.679 376.868C151.042 370.21 152.341 363.054 152.341 355.596C152.341 352.717 152.131 349.889 151.76 347.11H194.837C204.056 371.956 227.992 389.711 256.001 389.711C284.01 389.711 307.947 371.956 317.166 347.11H360.242C359.871 349.889 359.661 352.718 359.661 355.596C359.661 363.053 360.959 370.21 363.323 376.868C345.161 393.665 334.886 416.915 334.886 441.766V472.261C334.886 491.417 350.467 507.001 369.619 507.001H378.398C383.96 507.001 388.469 502.492 388.469 496.93C388.469 491.368 383.96 486.859 378.398 486.859H369.619C361.573 486.859 355.028 480.311 355.028 472.261V441.766C355.028 424.268 361.648 407.789 373.477 395.166C385.173 409.903 403.224 419.382 423.459 419.382C443.693 419.382 461.743 409.904 473.439 395.168C485.25 407.782 491.86 424.259 491.86 441.766V472.261C491.86 480.31 485.328 486.859 477.299 486.859L428 486.86C422.438 486.86 417.5 491.368 417.5 496.93C417.5 502.492 422.438 507.001 428 507.001H477.299C496.434 507.001 512.002 491.417 512.002 472.261V441.766C512 416.904 501.736 393.656 483.593 376.87ZM256 25.14C280.072 25.14 299.656 44.731 299.656 68.812C299.656 92.876 280.072 112.455 256 112.455C231.929 112.455 212.345 92.877 212.345 68.812C212.345 44.731 231.929 25.14 256 25.14ZM187.598 185.475V154.981C187.598 137.474 194.208 120.998 206.019 108.382C217.715 123.118 235.765 132.596 255.999 132.596C276.233 132.596 294.283 123.118 305.98 108.383C317.791 120.998 324.401 137.475 324.401 154.981V185.475C324.401 193.524 317.869 200.073 309.84 200.073H202.16C194.131 200.073 187.598 193.525 187.598 185.475ZM88.543 399.241C64.487 399.241 44.915 379.662 44.915 355.597C44.915 331.517 64.486 311.926 88.543 311.926C112.614 311.926 132.198 331.517 132.198 355.597C132.198 379.662 112.614 399.241 88.543 399.241ZM256 369.57C231.145 369.57 210.925 349.342 210.925 324.478C210.925 299.629 231.146 279.413 256 279.413C280.855 279.413 301.076 299.629 301.076 324.478C301.076 349.342 280.855 369.57 256 369.57ZM423.458 399.241C399.386 399.241 379.802 379.662 379.802 355.597C379.802 331.517 399.386 311.926 423.458 311.926C447.529 311.926 467.113 331.517 467.113 355.597C467.113 379.662 447.529 399.241 423.458 399.241Z" fill="#2C426A"/>
</g>
<defs>
<clipPath id="clip0">
<rect width="512" height="512" fill="white"/>
</clipPath>
</defs>
</svg>
