<svg width="512" height="512" viewBox="0 0 512 512" fill="none" xmlns="http://www.w3.org/2000/svg">
<g clip-path="url(#clip0)">
<g filter="url(#filter0_d)">
<path fill-rule="evenodd" clip-rule="evenodd" d="M256 379.641C282.139 379.641 304.044 361.452 309.697 337.04C310.635 333.004 311.147 328.798 311.147 324.478C311.147 294.04 286.457 269.343 256 269.343C225.544 269.343 200.854 294.04 200.854 324.478C200.854 328.797 201.364 333.003 202.303 337.04C207.957 361.453 229.862 379.641 256 379.641Z" fill="#000000"/>
<path fill-rule="evenodd" clip-rule="evenodd" d="M34.703 496.931H142.382C155.935 496.931 167.044 485.819 167.044 472.262V441.767C167.044 416.643 155.053 394.163 136.53 379.755C127.694 397.289 109.511 409.311 88.543 409.311C67.575 409.311 49.421 397.289 40.555 379.755C22.032 394.163 10.07 416.643 10.07 441.767V472.262C10.071 485.819 21.152 496.931 34.703 496.931Z" fill="#000000"/>
<path fill-rule="evenodd" clip-rule="evenodd" d="M309.841 210.144C323.364 210.144 334.417 199.117 334.473 185.618V185.475V154.981V154.782C334.417 129.716 322.455 107.32 303.987 92.968C295.151 110.503 276.968 122.525 256 122.525C235.033 122.525 216.878 110.503 208.013 92.968C189.488 107.377 177.527 129.857 177.527 154.981V185.475C177.527 199.032 188.608 210.144 202.16 210.144H309.841Z" fill="#000000"/>
<path fill-rule="evenodd" clip-rule="evenodd" d="M477.297 496.931H369.618C356.065 496.931 344.956 485.819 344.956 472.262V441.767C344.956 416.643 356.947 394.163 375.47 379.755C384.306 397.289 402.49 409.311 423.458 409.311C444.425 409.311 462.579 397.289 471.445 379.755C489.969 394.163 501.93 416.643 501.93 441.767V472.262C501.929 485.819 490.849 496.931 477.297 496.931V496.931Z" fill="#000000"/>
</g>
<path d="M483.593 376.87C485.956 370.212 487.255 363.055 487.255 355.597C487.255 320.41 458.636 291.784 423.458 291.784C398.568 291.784 376.976 306.124 366.467 326.969H321.155C321.186 326.141 321.218 325.313 321.218 324.478C321.218 291.947 297.267 264.907 266.071 260.052V220.215H309.841C328.976 220.215 344.544 204.631 344.544 185.475V154.981C344.544 130.119 334.28 106.871 316.137 90.084C318.5 83.426 319.799 76.269 319.799 68.812C319.799 33.625 291.18 4.99899 256.001 4.99899C220.823 4.99899 192.204 33.625 192.204 68.812C192.204 76.269 193.502 83.426 195.866 90.083C177.722 106.871 167.458 130.119 167.458 154.981V185.475C167.458 204.631 183.026 220.215 202.162 220.215H245.931V260.052C214.735 264.908 190.785 291.948 190.785 324.478C190.785 325.313 190.817 326.141 190.848 326.969H145.535C135.026 306.124 113.435 291.784 88.545 291.784C53.382 291.784 24.776 320.41 24.776 355.597C24.776 363.047 26.072 370.198 28.43 376.85C10.271 393.639 0 416.895 0 441.767V472.262C0 491.418 15.568 507.002 34.703 507.002H43.596C49.158 507.002 53.667 502.493 53.667 496.931C53.667 491.369 49.158 486.86 43.596 486.86H34.703C26.674 486.86 20.142 480.312 20.142 472.262V441.767C20.142 424.254 26.756 407.772 38.575 395.156C50.266 409.899 68.313 419.382 88.544 419.382C108.778 419.382 126.829 409.903 138.525 395.166C150.354 407.79 156.974 424.268 156.974 441.766V472.261C156.974 480.31 150.429 486.859 142.383 486.859H99.5C93.938 486.859 88.545 491.369 88.545 496.931C88.545 502.493 93.938 507.001 99.5 507.001H142.383C161.535 507.001 177.116 491.417 177.116 472.261V441.766C177.116 416.914 166.842 393.665 148.679 376.868C151.042 370.21 152.341 363.054 152.341 355.596C152.341 352.717 152.131 349.889 151.76 347.11H194.837C204.056 371.956 227.992 389.711 256.001 389.711C284.01 389.711 307.947 371.956 317.166 347.11H360.242C359.871 349.889 359.661 352.718 359.661 355.596C359.661 363.053 360.959 370.21 363.323 376.868C345.161 393.665 334.886 416.915 334.886 441.766V472.261C334.886 491.417 350.467 507.001 369.619 507.001H378.398C383.96 507.001 388.469 502.492 388.469 496.93C388.469 491.368 383.96 486.859 378.398 486.859H369.619C361.573 486.859 355.028 480.311 355.028 472.261V441.766C355.028 424.268 361.648 407.789 373.477 395.166C385.173 409.903 403.224 419.382 423.459 419.382C443.693 419.382 461.743 409.904 473.439 395.168C485.25 407.782 491.86 424.259 491.86 441.766V472.261C491.86 480.31 485.328 486.859 477.299 486.859L428 486.86C422.438 486.86 417.5 491.368 417.5 496.93C417.5 502.492 422.438 507.001 428 507.001H477.299C496.434 507.001 512.002 491.417 512.002 472.261V441.766C512 416.904 501.736 393.656 483.593 376.87ZM256 25.14C280.072 25.14 299.656 44.731 299.656 68.812C299.656 92.876 280.072 112.455 256 112.455C231.929 112.455 212.345 92.877 212.345 68.812C212.345 44.731 231.929 25.14 256 25.14ZM187.598 185.475V154.981C187.598 137.474 194.208 120.998 206.019 108.382C217.715 123.118 235.765 132.596 255.999 132.596C276.233 132.596 294.283 123.118 305.98 108.383C317.791 120.998 324.401 137.475 324.401 154.981V185.475C324.401 193.524 317.869 200.073 309.84 200.073H202.16C194.131 200.073 187.598 193.525 187.598 185.475ZM88.543 399.241C64.487 399.241 44.915 379.662 44.915 355.597C44.915 331.517 64.486 311.926 88.543 311.926C112.614 311.926 132.198 331.517 132.198 355.597C132.198 379.662 112.614 399.241 88.543 399.241ZM256 369.57C231.145 369.57 210.925 349.342 210.925 324.478C210.925 299.629 231.146 279.413 256 279.413C280.855 279.413 301.076 299.629 301.076 324.478C301.076 349.342 280.855 369.57 256 369.57ZM423.458 399.241C399.386 399.241 379.802 379.662 379.802 355.597C379.802 331.517 399.386 311.926 423.458 311.926C447.529 311.926 467.113 331.517 467.113 355.597C467.113 379.662 447.529 399.241 423.458 399.241Z" fill="#000000"/>
</g>
<defs>
<filter id="filter0_d" x="6.07001" y="15.069" width="499.86" height="489.862" filterUnits="userSpaceOnUse" color-interpolation-filters="sRGB">
<feFlood flood-opacity="0" result="BackgroundImageFix"/>
<feColorMatrix in="SourceAlpha" type="matrix" values="0 0 0 0 0 0 0 0 0 0 0 0 0 0 0 0 0 0 127 0"/>
<feOffset dy="4"/>
<feGaussianBlur stdDeviation="2"/>
<feColorMatrix type="matrix" values="0 0 0 0 0 0 0 0 0 0 0 0 0 0 0 0 0 0 0.25 0"/>
<feBlend mode="normal" in2="BackgroundImageFix" result="effect1_dropShadow"/>
<feBlend mode="normal" in="SourceGraphic" in2="effect1_dropShadow" result="shape"/>
</filter>
<clipPath id="clip0">
<rect width="512" height="512" fill="white"/>
</clipPath>
</defs>
</svg>
