<svg width="512" height="512" viewBox="0 0 512 512" fill="none" xmlns="http://www.w3.org/2000/svg">
<g clip-path="url(#clip0)">
<path d="M453.012 101.186C439.715 80.3491 418.585 67.623 390.639 66.1944V47.7179C390.639 44.1788 386.41 41.0008 382.871 41.0008H313.245V73.7538H354.741V92.6503C354.741 178.791 334.11 257.296 285.587 285.814C268.384 295.923 264.56 315.128 264.591 335.391V353.873H249.473V335.391C249.504 315.129 245.677 295.921 228.477 285.814C179.951 257.298 155.698 178.794 155.698 92.6503V73.7538H313.245V41.0008L129.133 41C125.594 41 121.366 43.7589 121.366 47.298V67.0343C93.4233 68.4645 72.2937 80.3508 58.999 101.186C43.7878 125.021 43.2805 156.393 57.6065 187.256C68.4917 210.697 89.9438 230.329 121.366 245.608C144.795 257 160.997 261.8 163.257 262.298C174.416 276.71 181.084 289.2 194.735 297.222C208.03 305.034 222.069 319.66 222.046 335.391V353.873H194.735C177.355 353.873 163.265 367.963 163.265 385.343V393.173H145.751C142.212 393.173 139.343 396.042 139.343 399.581V464.593C139.343 468.132 142.212 471.001 145.751 471.001H209.87V447.065H169.673V414.729C169.673 414.729 320.361 414.729 342.337 414.729V447.065H209.87V471.001H366.259C369.798 471.001 372.667 468.132 372.667 464.593V399.581C372.667 396.042 369.798 393.173 366.259 393.173H348.744V385.343C348.744 367.963 334.654 353.873 317.275 353.873H291.753V335.391C291.728 319.66 303.98 305.035 317.275 297.222C330.926 289.2 337.586 276.71 348.744 262.298C351.01 261.798 367.253 256.98 390.639 245.608C422.064 230.328 443.515 210.696 454.395 187.254C468.719 156.395 468.215 125.026 453.012 101.186ZM142.869 222.726C126.232 214.88 93.0518 200.243 84 180.75C75.311 162.038 75.9887 130.849 84 118.298C90.1065 108.721 107.053 97.9566 121.366 96.7976C122.553 135.833 129.55 190.307 142.869 222.726ZM390.639 96.7976C404.948 97.9558 421.886 108.723 428 118.298C436.005 130.851 436.688 162.041 428 180.75C418.944 200.251 389.303 214.885 372.667 222.726C385.983 190.307 389.452 135.832 390.639 96.7976Z" fill="black"/>
</g>
<defs>
<clipPath id="clip0">
<rect width="430" height="430" fill="white" transform="translate(41 41)"/>
</clipPath>
</defs>
</svg>
