<svg width="512" height="512" viewBox="0 0 512 512" fill="none" xmlns="http://www.w3.org/2000/svg">
<g clip-path="url(#clip0)">
<path d="M490.582 71.663C474.75 46.853 449.59 31.7 416.315 29.999V7.999C416.315 3.785 411.279 0.001 407.065 0.001H324.162V39H373.571V61.5C373.571 164.068 349.006 257.544 291.229 291.5C270.746 303.537 266.192 326.404 266.229 350.531V372.538H248.229V350.531C248.265 326.405 243.709 303.534 223.229 291.5C165.449 257.546 136.571 164.071 136.571 61.5V39H324.162V0.001L104.94 0C100.726 0 95.6924 3.285 95.6924 7.499V30.999C62.4204 32.702 37.2614 46.855 21.4314 71.664C3.31938 100.044 2.71537 137.398 19.7734 174.147C32.7344 202.058 58.2774 225.434 95.6924 243.627C123.588 257.191 142.88 262.906 145.571 263.499C158.858 280.66 166.798 295.532 183.052 305.083C198.882 314.385 215.598 331.801 215.571 350.531V372.538H183.052C162.357 372.538 145.581 389.315 145.581 410.009V419.332H124.727C120.513 419.332 117.097 422.748 117.097 426.962V504.372C117.097 508.586 120.513 512.002 124.727 512.002H201.073V483.501H153.21V444.999C153.21 444.999 332.636 444.999 358.802 444.999V483.501H201.073V512.002H387.285C391.499 512.002 394.915 508.586 394.915 504.372V426.962C394.915 422.748 391.499 419.332 387.285 419.332H366.431V410.009C366.431 389.315 349.654 372.538 328.96 372.538H298.571V350.531C298.542 331.801 313.13 314.387 328.96 305.083C345.214 295.532 353.144 280.66 366.431 263.499C369.128 262.904 388.469 257.167 416.315 243.627C453.732 225.433 479.274 202.057 492.229 174.145C509.285 137.401 508.685 100.05 490.582 71.663ZM117.759 203.422C97.9494 194.079 72.0714 178.072 61.2934 154.862C50.9474 132.582 50.4844 111.233 60.0234 96.288C67.2944 84.885 78.6494 78.051 95.6924 76.671C97.1054 123.151 101.9 164.82 117.759 203.422ZM416.315 76.671C433.353 78.05 444.711 84.887 451.991 96.288C461.522 111.235 461.055 132.584 450.71 154.861C439.927 178.081 414.053 194.085 394.244 203.422C410.1 164.821 414.901 123.149 416.315 76.671Z" fill="black"/>
</g>
<defs>
<clipPath id="clip0">
<rect width="512.001" height="512.001" fill="white"/>
</clipPath>
</defs>
</svg>
