<svg width="512" height="512" viewBox="0 0 512 512" fill="none" xmlns="http://www.w3.org/2000/svg">
<path fill-rule="evenodd" clip-rule="evenodd" d="M512 256C512 397.385 397.385 512 256 512C114.615 512 0 397.385 0 256C0 114.615 114.615 0 256 0C397.385 0 512 114.615 512 256ZM256 193C294.66 193 326 161.66 326 123C326 84.3401 294.66 53 256 53C217.34 53 186 84.3401 186 123C186 161.66 217.34 193 256 193ZM393.713 386.399L272.292 215.88C264.317 204.681 247.683 204.681 239.708 215.88L118.287 386.399C108.859 399.64 118.325 418 134.579 418H377.421C393.675 418 403.141 399.639 393.713 386.399Z" fill="black"/>
</svg>
